<svg width="150" height="132" viewBox="0 0 150 132" fill="none" xmlns="http://www.w3.org/2000/svg">
<path d="M141.351 85.4329C142.519 85.4329 143.585 85.4114 144.649 85.4329C147.234 85.4912 148.953 87.0001 148.993 89.239C149.045 91.5361 147.293 93.1647 144.609 93.1953C141.123 93.2413 137.637 93.1953 134.157 93.1953C122.746 93.1953 111.337 93.1953 99.9294 93.1953C99.2329 93.2222 98.5354 93.1873 97.8451 93.0911C96.9276 92.9516 96.0901 92.4901 95.4831 91.7896C94.8762 91.0891 94.5398 90.1956 94.5342 89.2697C94.5639 88.3111 94.942 87.3959 95.5982 86.6951C96.2543 85.9942 97.1437 85.5554 98.1002 85.4605C98.7321 85.4088 99.3666 85.3955 100 85.4206H133.496V83.2186C133.496 58.8057 133.509 34.3928 133.536 9.97985C133.536 8.19795 133.121 7.6183 131.249 7.62137C96.3879 7.67657 61.526 7.68986 26.663 7.66124H24.4035V9.91238C24.4035 17.8864 24.4035 25.8605 24.4035 33.8346C24.4354 34.589 24.3524 35.3438 24.1576 36.0734C23.5919 37.8369 22.3131 38.757 20.4379 38.7079C18.5626 38.6589 17.333 37.6836 16.8595 35.8894C16.6817 35.0842 16.6063 34.2599 16.6351 33.4359C16.6208 25.6663 16.6208 17.8875 16.6351 10.0995V7.6459C15.4055 7.6459 14.2957 7.67657 13.1921 7.6459C10.5268 7.56003 8.93437 6.11243 8.92514 3.83062C8.89748 1.47827 10.5606 0.00306695 13.3273 0C42.6732 0 72.0201 0 101.368 0C115.755 0 130.143 0 144.532 0C146.515 0 148.028 0.640992 148.744 2.54863C148.953 3.08164 149.036 3.65587 148.986 4.22618C148.935 4.79648 148.753 5.34732 148.453 5.83538C148.153 6.32343 147.743 6.73541 147.257 7.03893C146.77 7.34244 146.219 7.52921 145.648 7.58456C144.283 7.73178 142.881 7.61216 141.344 7.61216L141.351 85.4329Z" fill="#382778"/>
<path d="M54.7209 113.489C55.3142 112.812 55.7661 112.312 56.1995 111.793C71.6174 93.4326 87.0395 75.0749 102.466 56.7202C103.136 55.9259 103.981 55.0917 104.925 54.7482C106.61 54.1348 108.205 54.601 109.272 56.1528C110.378 57.7691 110.219 59.4038 109.004 60.879C106.105 64.3937 103.163 67.8717 100.237 71.3618C85.7165 88.6594 71.2096 105.968 56.716 123.288C56.0612 124.07 55.886 125.285 55.6031 126.328C55.4587 126.858 55.6031 127.462 55.5663 128.03C55.431 130.348 53.9093 131.94 51.7943 131.998C49.5962 132.057 47.9085 130.465 47.7979 128.061C47.6995 125.727 47.764 123.386 47.7671 121.046C47.7671 110.548 40.9271 102.559 30.6871 101.136C19.6202 99.6023 9.19876 108.343 8.86061 119.491C8.77146 122.335 8.86061 125.181 8.80835 128.024C8.75609 130.342 7.19749 131.937 5.0671 131.995C2.97667 132.054 1.21211 130.667 1.14448 128.441C0.978472 123.022 0.637241 117.575 2.32803 112.272C4.04954 106.847 7.43347 102.097 12.0032 98.6919C16.573 95.2866 22.0983 93.3973 27.8011 93.2899C33.5039 93.1826 39.0967 94.8626 43.792 98.0935C48.4873 101.324 52.0484 105.943 53.9738 111.3C54.2106 111.925 54.4165 112.582 54.7209 113.489Z" fill="#382778"/>
<path d="M8.41185 66.4608C8.40328 63.8506 8.91315 61.2646 9.91201 58.8521C10.9109 56.4395 12.3789 54.2484 14.2314 52.4051C16.0839 50.5618 18.2841 49.1029 20.7049 48.1127C23.1257 47.1226 25.7191 46.6207 28.3355 46.6361C39.301 46.6637 48.2099 55.4566 48.2714 66.3167C48.275 68.9594 47.7551 71.5767 46.7415 74.0183C45.728 76.4598 44.2407 78.6775 42.3652 80.5437C40.4897 82.4099 38.2631 83.8879 35.8131 84.8928C33.3632 85.8977 30.7384 86.4096 28.0895 86.3991C17.2255 86.3254 8.40263 77.3853 8.41185 66.4608ZM28.36 78.6152C29.96 78.6209 31.5453 78.3099 33.0239 77.7002C34.5026 77.0905 35.8454 76.1942 36.9744 75.0632C38.1035 73.9322 38.9965 72.589 39.6016 71.1113C40.2068 69.6336 40.5121 68.0509 40.4999 66.4547C40.4812 63.23 39.1862 60.1433 36.8969 57.8668C34.6076 55.5903 31.5094 54.3084 28.277 54.3004C21.6123 54.3035 16.0634 59.8761 16.088 66.5344C16.0961 68.1323 16.4202 69.7129 17.0417 71.1856C17.6633 72.6583 18.5701 73.9941 19.7102 75.1164C20.8503 76.2388 22.2013 77.1255 23.6856 77.7259C25.1699 78.3263 26.7584 78.6285 28.36 78.6152Z" fill="#382778"/>
<path d="M82.7265 46.5716C72.5818 46.5716 62.437 46.5869 52.3138 46.5716C48.9722 46.5716 46.9802 44.0076 48.1176 41.2596C48.8308 39.5299 50.2542 38.8306 52.0464 38.8061C54.3274 38.7785 56.6084 38.8061 58.8895 38.8061H111.922C112.429 38.8061 112.936 38.8061 113.44 38.8061C116.115 38.8828 117.904 40.4806 117.861 42.7502C117.818 45.0197 116.038 46.5716 113.33 46.5747C103.13 46.591 92.9286 46.59 82.7265 46.5716Z" fill="#382778"/>
<path d="M90.6362 31.0284C83.0338 31.0284 75.4283 31.053 67.8229 31.0284C64.3583 31.0284 62.3693 28.0749 63.8849 25.3178C64.7918 23.6647 66.3288 23.2445 68.0719 23.2445H87.2731C95.8807 23.2445 104.51 23.2445 113.13 23.2445C116.576 23.2445 118.568 25.5815 117.612 28.3786C117.012 30.1329 115.598 31.0223 113.259 31.0254C105.719 31.0397 98.1781 31.0407 90.6362 31.0284Z" fill="#382778"/>
</svg>
