<svg width="151" height="132" viewBox="0 0 151 132" fill="none" xmlns="http://www.w3.org/2000/svg">
<path d="M115.836 111.11H95.6402C94.3551 115.862 91.5255 119.135 86.7735 120.549C85.8326 120.848 84.8549 121.015 83.8683 121.046C78.5547 121.046 73.2411 121.133 67.9275 121.046C64.9383 120.968 62.0767 119.819 59.8639 117.807C57.651 115.796 56.2343 113.057 55.8718 110.089C55.5093 107.121 56.2251 104.121 57.8888 101.636C59.5525 99.1516 62.0534 97.3473 64.9359 96.5519C66.1928 96.233 67.4841 96.0698 68.7807 96.0659C73.2087 96.0119 77.6259 96.0659 82.0539 96.0659C89.2575 96.0659 93.3507 99.0251 95.6402 105.991H115.836C115.755 104.433 115.755 102.872 115.836 101.315C115.859 100.887 115.966 100.469 116.152 100.083C116.337 99.6979 116.597 99.3529 116.916 99.0683C120.761 96.9083 124.66 94.7483 129.336 95.1479C130.621 95.2667 131.885 95.5367 133.224 95.7527V73.5372H121.852C119.065 73.5372 118.353 72.8244 118.353 70.038V63.8388C118.223 63.72 118.147 63.5904 118.072 63.5904C112.769 63.5904 107.455 63.5904 102.142 63.5904C101.634 63.6566 101.152 63.858 100.749 64.1736C94.3766 68.3856 88.0047 72.6192 81.6759 76.8852C81.455 77.0643 81.2716 77.2853 81.1363 77.5355C81.001 77.7857 80.9164 78.0602 80.8875 78.3432C80.7903 80.1036 80.8875 81.8856 80.8875 83.6567C80.8705 85.6068 80.0876 87.4721 78.7076 88.8501C77.3276 90.228 75.4612 91.0082 73.5111 91.0223C57.628 91.0223 41.7448 91.0223 25.8617 91.0223C24.8822 91.0237 23.912 90.832 23.0066 90.4582C22.1013 90.0843 21.2785 89.5356 20.5854 88.8435C19.8922 88.1514 19.3424 87.3294 18.9672 86.4246C18.592 85.5198 18.3989 84.5499 18.3989 83.5704C18.3989 80.3304 18.3989 77.0904 18.3989 73.8504C18.3298 73.7414 18.2541 73.6368 18.1721 73.5372H3.81895C1.49696 73.5372 0.481763 72.2196 1.04336 69.984C2.62016 63.6336 4.21135 57.294 5.81695 50.9653C6.29214 49.0753 6.95094 48.5677 8.87334 48.5569C11.9513 48.5569 15.0185 48.5569 18.3449 48.5569C18.3449 47.9629 18.3449 47.4121 18.3449 46.8721C18.3449 40.9321 18.3449 34.9921 18.3449 29.0521C18.3449 24.1706 21.4985 21.0494 26.3585 21.0494H58.51C60.0436 15.6494 63.3484 12.3014 68.7915 11.2214C69.6112 11.0738 70.4427 11.0015 71.2755 11.0054C76.1247 11.0054 80.9955 11.0054 85.8123 11.0054C87.4848 10.9562 89.1503 11.2432 90.7099 11.8493C92.2696 12.4554 93.6917 13.3684 94.8922 14.534C96.0926 15.6997 97.047 17.0945 97.6986 18.6356C98.3503 20.1768 98.6861 21.8331 98.6861 23.5064C98.6861 25.1796 98.3503 26.8359 97.6986 28.3771C97.047 29.9183 96.0926 31.313 94.8922 32.4787C93.6917 33.6444 92.2696 34.5573 90.7099 35.1634C89.1503 35.7695 87.4848 36.0565 85.8123 36.0073C81.2331 36.0073 76.6431 35.8345 72.0639 36.0073C68.9724 36.2347 65.9017 35.3465 63.409 33.5037C60.9163 31.6609 59.1667 28.9857 58.4776 25.9633H26.7149C24.1553 25.9633 23.3561 26.7625 23.3561 29.3113V48.4273C23.8421 48.4273 24.2957 48.5137 24.7385 48.5137H37.6984C40.204 48.5137 41.2084 49.7989 40.6252 52.2181C40.1284 54.2701 39.6316 56.322 39.0916 58.5144C44.3836 58.5144 49.4812 58.5144 54.5788 58.5144C55.1332 58.4359 55.6558 58.2082 56.0908 57.8556C62.7652 53.4169 69.4611 48.9997 76.0707 44.4853C76.7083 43.9566 77.5105 43.6673 78.3387 43.6673C79.1669 43.6673 79.9691 43.9566 80.6067 44.4853C87.2235 48.9493 93.8438 53.3593 100.468 57.7152C101.242 58.2052 102.133 58.4775 103.049 58.5036C108.082 58.5684 113.125 58.5036 118.342 58.5036C118.342 56.0844 118.342 53.8165 118.342 51.5377C118.342 49.2589 119.249 48.4921 121.377 48.4921C130.218 48.4921 139.07 48.4921 147.934 48.4921C148.325 48.4327 148.724 48.4655 149.1 48.5878C149.476 48.7101 149.818 48.9186 150.099 49.1966C150.38 49.4746 150.593 49.8144 150.719 50.189C150.846 50.5636 150.883 50.9625 150.828 51.3541C150.828 57.834 150.828 64.2924 150.828 70.7292C150.873 71.1082 150.83 71.4924 150.703 71.8524C150.577 72.2123 150.369 72.5387 150.098 72.8064C149.826 73.0742 149.496 73.2763 149.134 73.3973C148.772 73.5183 148.388 73.5551 148.009 73.5048C144.845 73.5048 141.68 73.5048 138.43 73.5048V97.7291C139.749 97.6934 141.065 97.5852 142.372 97.4051C144.11 97.0811 145.795 96.5519 147.523 96.1415C147.92 96.0018 148.346 95.9633 148.761 96.0297C149.177 96.096 149.569 96.265 149.903 96.5214C150.236 96.7778 150.5 97.1134 150.672 97.4978C150.843 97.8822 150.915 98.3032 150.882 98.7227C150.882 105.282 150.882 111.845 150.882 118.411C150.914 118.766 150.867 119.123 150.745 119.457C150.623 119.791 150.429 120.095 150.176 120.345C149.923 120.596 149.619 120.788 149.283 120.907C148.948 121.026 148.59 121.07 148.236 121.035C138.343 121.035 128.447 121.035 118.547 121.035C118.18 121.068 117.81 121.018 117.465 120.888C117.121 120.758 116.81 120.552 116.555 120.285C116.301 120.018 116.11 119.698 115.997 119.347C115.884 118.997 115.851 118.625 115.901 118.26C115.825 115.927 115.836 113.605 115.836 111.11ZM37.8172 63.5904C37.3528 65.4696 36.8884 67.176 36.4888 68.8932C35.3224 73.9692 35.1388 73.6452 30.5057 73.602C28.1405 73.602 25.7645 73.602 23.3561 73.602C23.3561 76.842 23.3561 79.8876 23.3561 82.9008C23.3561 85.2551 24.2093 86.1407 26.5961 86.1407H72.6363C74.9691 86.1407 75.8115 85.2767 75.8763 82.9008C75.952 81.4978 75.952 80.0917 75.8763 78.6888C75.8 77.9747 75.452 77.3173 74.9043 76.8528C68.6187 72.5328 62.29 68.3856 55.9612 64.1844C55.5498 63.8804 55.0655 63.6904 54.5572 63.6336C48.9736 63.5256 43.4548 63.5364 37.8172 63.5364V63.5904ZM96.137 61.2144C96.0182 60.9984 95.9966 60.8796 95.9318 60.8256C90.3159 57.0672 84.6999 53.2657 79.0407 49.5937C78.7783 49.5009 78.4985 49.4683 78.2218 49.4982C77.9452 49.5281 77.6788 49.6198 77.4423 49.7665C75.1635 51.2029 72.9279 52.7365 70.6815 54.2377L60.6052 60.9012C60.724 61.1172 60.7456 61.236 60.8104 61.29C66.4263 65.0052 72.0315 68.8284 77.6799 72.5652C77.9181 72.6606 78.1747 72.7013 78.4307 72.6845C78.6868 72.6677 78.9358 72.5937 79.1595 72.468C81.0171 71.3232 82.8207 70.0812 84.6351 68.8716L96.137 61.2144ZM75.7467 116.057C78.1983 116.057 80.6391 116.057 83.0799 116.057C84.0874 116.095 85.0922 115.93 86.0343 115.57C86.9764 115.211 87.8364 114.666 88.5627 113.966C89.289 113.267 89.8668 112.429 90.2614 111.501C90.6561 110.573 90.8595 109.575 90.8595 108.567C90.8595 107.559 90.6561 106.561 90.2614 105.633C89.8668 104.705 89.289 103.867 88.5627 103.167C87.8364 102.468 86.9764 101.923 86.0343 101.563C85.0922 101.204 84.0874 101.039 83.0799 101.077C78.1839 101.077 73.2951 101.077 68.4135 101.077C67.406 101.039 66.4012 101.204 65.4591 101.563C64.517 101.923 63.6571 102.468 62.9307 103.167C62.2044 103.867 61.6266 104.705 61.232 105.633C60.8373 106.561 60.6339 107.559 60.6339 108.567C60.6339 109.575 60.8373 110.573 61.232 111.501C61.6266 112.429 62.2044 113.267 62.9307 113.966C63.6571 114.666 64.517 115.211 65.4591 115.57C66.4012 115.93 67.406 116.095 68.4135 116.057C70.8651 116.067 73.3059 116.057 75.7467 116.057ZM78.2847 31.0177C80.8335 31.0177 83.3823 31.0177 85.9311 31.0177C87.9189 31.0177 89.8253 30.2281 91.231 28.8224C92.6366 27.4168 93.4263 25.5104 93.4263 23.5226C93.4263 21.5347 92.6366 19.6283 91.231 18.2227C89.8253 16.8171 87.9189 16.0274 85.9311 16.0274C80.9415 16.0274 75.9519 15.9734 70.9623 16.0274C68.9773 16.0274 67.0737 16.8159 65.6701 18.2195C64.2665 19.6231 63.478 21.5268 63.478 23.5118C63.478 25.4967 64.2665 27.4004 65.6701 28.804C67.0737 30.2076 68.9773 30.9961 70.9623 30.9961C73.4031 31.0501 75.8439 31.0177 78.2847 31.0177ZM10.2989 53.5897L6.59454 68.4828H31.4345L35.1496 53.5897H10.2989ZM145.784 101.93C145.623 101.913 145.46 101.913 145.298 101.93C144.888 102.006 144.488 102.114 144.078 102.211C140.487 103.234 136.645 102.907 133.278 101.293C129.088 99.2087 125.211 100.083 121.398 102.373C121.253 102.461 121.128 102.579 121.031 102.718C120.934 102.858 120.868 103.016 120.837 103.183C120.837 107.438 120.837 111.693 120.837 115.992H145.774L145.784 101.93ZM123.45 53.6005V68.418H145.752V53.6005H123.45Z" fill="#382778"/>
</svg>
