<svg width="150" height="132" viewBox="0 0 150 132" fill="none" xmlns="http://www.w3.org/2000/svg">
<path d="M81.3084 51.1664L80.2849 52.435C75.5664 58.5736 68.064 61.0905 61.2679 58.8192C58.3162 57.8862 55.7796 55.9588 54.0905 53.3655C52.4014 50.7723 51.6644 47.6737 52.005 44.598C52.311 41.5462 53.615 38.6804 55.7151 36.4442C57.8153 34.2081 60.5943 32.7265 63.622 32.2287C70.7047 31.1135 76.0884 33.9168 80.336 39.3904C80.5817 39.7178 80.8171 40.0554 81.073 40.4135C81.1241 40.4749 81.2367 40.5056 81.206 40.4852C82.9051 38.797 84.4096 36.9964 86.2008 35.5026C88.8527 33.2697 92.1985 32.0273 95.6656 31.9881C99.1328 31.9489 102.506 33.1153 105.208 35.2878C107.307 37.0288 108.842 39.3541 109.618 41.9687C110.393 44.5834 110.374 47.3693 109.562 49.9729C108.751 52.5765 107.183 54.8803 105.06 56.592C102.936 58.3037 100.351 59.3459 97.6335 59.5865C91.083 60.1492 86.1599 57.2845 82.2807 52.3225L81.3084 51.1664ZM66.5288 36.9657C62.8441 37.0271 59.9168 38.3469 58.2587 41.6413C57.4064 43.139 57.0168 44.8554 57.1388 46.5741C57.2608 48.2928 57.8891 49.937 58.9445 51.2994C61.145 54.2459 64.2873 55.0746 67.8184 54.4812C71.9125 53.7855 74.8807 51.2994 77.2143 47.9947C78.6268 45.9485 78.6268 45.9485 77.2859 43.9023C74.7169 39.9429 71.3802 37.2419 66.5288 36.9657ZM95.3101 37.0271C91.4822 37.1703 88.2171 39.3802 85.904 42.9815C83.7955 46.2759 83.7853 45.6416 85.9654 48.9155C89.0359 53.5093 94.2866 55.5862 98.872 54.2152C100.898 53.6711 102.655 52.4033 103.809 50.6517C104.964 48.9002 105.436 46.7865 105.136 44.7106C104.399 40.0554 100.755 36.9964 95.3408 37.0271H95.3101Z" fill="#382778"/>
<path d="M94.7369 49.7442V47.2479C94.7369 47.1448 94.6959 47.0459 94.623 46.973C94.55 46.9 94.4511 46.8591 94.3479 46.8591H91.8199C91.7167 46.8591 91.6178 46.8181 91.5448 46.7452C91.4719 46.6723 91.4309 46.5734 91.4309 46.4703V45.1812C91.4296 45.1293 91.4386 45.0776 91.4575 45.0293C91.4765 44.9809 91.5049 44.9368 91.5412 44.8996C91.5774 44.8625 91.6207 44.8329 91.6686 44.8127C91.7165 44.7925 91.7679 44.7822 91.8199 44.7822H94.3479C94.4511 44.7822 94.55 44.7412 94.623 44.6683C94.6959 44.5954 94.7369 44.4965 94.7369 44.3934V41.8766C94.7355 41.8247 94.7446 41.773 94.7635 41.7246C94.7824 41.6763 94.8109 41.6322 94.8471 41.595C94.8834 41.5578 94.9267 41.5283 94.9746 41.5081C95.0225 41.4879 95.0739 41.4775 95.1258 41.4776H96.4155C96.4683 41.4761 96.5208 41.4855 96.5699 41.5051C96.6189 41.5246 96.6635 41.554 96.7009 41.5913C96.7382 41.6286 96.7676 41.6732 96.7871 41.7222C96.8067 41.7713 96.816 41.8238 96.8146 41.8766V44.3934C96.8146 44.4965 96.8556 44.5954 96.9285 44.6683C97.0015 44.7412 97.1004 44.7822 97.2036 44.7822H99.701C99.7529 44.7822 99.8043 44.7925 99.8522 44.8127C99.9001 44.8329 99.9434 44.8625 99.9797 44.8996C100.016 44.9368 100.044 44.9809 100.063 45.0293C100.082 45.0776 100.091 45.1293 100.09 45.1812V46.4703C100.09 46.5734 100.049 46.6723 99.976 46.7452C99.903 46.8181 99.8041 46.8591 99.701 46.8591H97.2343C97.1832 46.8591 97.1326 46.8691 97.0854 46.8887C97.0382 46.9082 96.9954 46.9369 96.9593 46.973C96.9231 47.0091 96.8945 47.0519 96.8749 47.0991C96.8554 47.1463 96.8453 47.1968 96.8453 47.2479V49.7442C96.8467 49.797 96.8374 49.8495 96.8178 49.8986C96.7983 49.9476 96.7689 49.9922 96.7316 50.0295C96.6942 50.0669 96.6496 50.0962 96.6006 50.1158C96.5515 50.1353 96.499 50.1447 96.4462 50.1433H95.1258C95.0739 50.1433 95.0225 50.1329 94.9746 50.1127C94.9267 50.0925 94.8834 50.063 94.8471 50.0258C94.8109 49.9886 94.7824 49.9445 94.7635 49.8962C94.7446 49.8478 94.7355 49.7961 94.7369 49.7442Z" fill="#382778"/>
<path d="M63.2432 46.5521V45.0686C63.2459 44.9645 63.2891 44.8657 63.3637 44.793C63.4383 44.7204 63.5383 44.6798 63.6424 44.6798H70.2134C70.3175 44.6798 70.4175 44.7204 70.4921 44.793C70.5667 44.8657 70.6099 44.9645 70.6126 45.0686V46.5521C70.6099 46.6561 70.5667 46.755 70.4921 46.8276C70.4175 46.9003 70.3175 46.9409 70.2134 46.9409H63.6424C63.5383 46.9409 63.4383 46.9003 63.3637 46.8276C63.2891 46.755 63.2459 46.6561 63.2432 46.5521Z" fill="#382778"/>
<path d="M145.974 38.8584C145.663 38.5626 145.42 38.2024 145.263 37.803C145.106 37.4036 145.038 36.9746 145.063 36.5462C145.063 29.9574 145.063 23.3583 145.063 16.7696C145.063 14.3755 143.794 13.1068 141.409 13.0045C141.092 13.0045 140.765 13.0045 140.447 13.0045H20.2145C19.7056 12.9909 19.1963 13.008 18.6895 13.0557C18.2718 13.0689 17.8609 13.1644 17.4803 13.3368C17.0997 13.5092 16.7569 13.755 16.4716 14.0601C16.1863 14.3653 15.9641 14.7237 15.8178 15.115C15.6715 15.5062 15.6039 15.9224 15.6189 16.3398C15.578 20.6778 15.578 25.0124 15.6189 29.3435C15.6189 29.3435 15.6189 29.4151 15.6189 29.4561C15.7929 22.898 17.0416 18.693 18.8532 18.6521C20.6648 18.6111 22.0057 22.9184 22.1899 29.364C22.282 27.5326 22.1899 25.6808 22.1899 23.8392V19.6752H138.472C138.472 25.1488 138.472 30.4485 138.472 35.7379C138.472 41.4775 137.929 40.168 142.116 44.332C142.483 44.6681 142.773 45.0801 142.966 45.5394C143.159 45.9987 143.249 46.4944 143.231 46.9921C143.231 67.3723 143.231 87.7491 143.231 108.123C143.242 108.743 143.129 109.359 142.898 109.935C142.666 110.511 142.322 111.034 141.885 111.475C141.448 111.915 140.927 112.264 140.354 112.5C139.78 112.736 139.164 112.855 138.544 112.849H23.9503C23.3749 112.901 22.796 112.901 22.2206 112.849C22.2206 114.394 22.2206 115.919 22.2206 117.382L15.926 117.484C16.1107 117.993 16.43 118.443 16.8499 118.785C17.2698 119.127 17.7746 119.349 18.3108 119.428C18.9533 119.494 19.5998 119.515 20.2452 119.489H140.335C140.745 119.551 141.163 119.551 141.573 119.489C142.493 119.286 143.367 118.915 144.152 118.395C145.596 117.187 146.803 115.704 148.246 114.456C148.845 113.922 149.314 113.258 149.616 112.515C149.917 111.771 150.044 110.969 149.986 110.169C149.986 89.6044 149.986 69.0502 149.986 48.4858C149.905 41.7026 150.723 43.6874 145.974 38.8584Z" fill="#382778"/>
<path d="M15.6087 116.328V114.415C15.5274 115.05 15.5274 115.693 15.6087 116.328Z" fill="#382778"/>
<path d="M22.2103 31.7684V30.8987C22.2103 30.3769 22.2103 29.8756 22.2103 29.3845C22.1926 30.282 21.8254 31.1372 21.1868 31.7684H22.2103Z" fill="#382778"/>
<path d="M19.4468 111.345C19.909 111.37 20.3491 111.55 20.6955 111.857C20.873 112.109 21.0997 112.322 21.3618 112.483C21.6239 112.645 21.916 112.752 22.2206 112.798V102.127H15.6086V114.404C15.6086 114.251 15.6086 114.108 15.6598 113.954C15.8165 113.107 16.3034 112.356 17.0134 111.867C17.7234 111.378 18.5986 111.19 19.4468 111.345Z" fill="#382778"/>
<path d="M21.4018 79.0665H22.2308V59.7502H15.6086V79.0665H21.4018Z" fill="#382778"/>
<path d="M15.6393 29.4459C15.6393 29.9472 15.6393 30.469 15.6393 31.001V31.7684H16.6629C16.3448 31.4699 16.0903 31.1104 15.9144 30.7114C15.7386 30.3123 15.645 29.8819 15.6393 29.4459Z" fill="#382778"/>
<path d="M15.6189 117.433H15.9157C15.7666 117.061 15.6635 116.673 15.6086 116.277L15.6189 117.433Z" fill="#382778"/>
<path d="M16.6219 31.7682H21.1766C21.8152 31.1371 22.1824 30.2819 22.2001 29.3844C22.0056 22.9183 20.6648 18.6111 18.8737 18.6418C17.0825 18.6725 15.8031 22.8876 15.6393 29.4458C15.6397 29.8788 15.7268 30.3075 15.8956 30.7063C16.0643 31.1052 16.3113 31.4663 16.6219 31.7682Z" fill="#382778"/>
<path d="M22.2206 112.798C21.916 112.752 21.6239 112.645 21.3618 112.483C21.0997 112.322 20.873 112.109 20.6955 111.857C20.3491 111.55 19.909 111.37 19.4468 111.345C19.0261 111.269 18.5944 111.275 18.1763 111.366C17.7582 111.456 17.362 111.627 17.0103 111.87C16.6586 112.114 16.3583 112.424 16.1266 112.783C15.8949 113.142 15.7362 113.544 15.6598 113.965C15.6598 114.118 15.6598 114.261 15.6086 114.415V116.328C15.6635 116.724 15.7666 117.113 15.9157 117.484L22.2103 117.382C22.2103 115.857 22.2103 114.343 22.2206 112.798Z" fill="#382778"/>
<path d="M14.4009 54.7165H5.6703C5.47272 54.7321 5.27423 54.7321 5.07665 54.7165C5.06212 54.5122 5.06212 54.307 5.07665 54.1027C5.07665 48.5779 5.07665 43.0531 5.07665 37.5284C5.06036 37.3138 5.06036 37.0984 5.07665 36.8838C5.27079 36.8677 5.46593 36.8677 5.66006 36.8838H15.5984C15.5984 35.2059 15.5984 33.528 15.5984 31.8501H5.6703C1.96516 31.7785 0 33.7531 0 37.4772C0 42.9815 0 48.5097 0 54.0617C0 57.7654 1.95492 59.7298 5.63959 59.7502H15.5984V54.7165H14.4009Z" fill="#382778"/>
<path d="M36.1712 54.0004C36.1712 48.5438 36.1712 43.0634 36.1712 37.5591C36.1712 33.7736 34.1241 31.7785 30.419 31.7683H22.2308C22.2308 33.4155 22.2308 35.0934 22.2308 36.802H30.419C30.6452 36.7997 30.8712 36.8168 31.0945 36.8531C31.1357 37.0861 31.1529 37.3226 31.1457 37.5591C31.1457 43.0156 31.1457 48.4961 31.1457 54.0004C31.1622 54.2217 31.1622 54.444 31.1457 54.6654C30.916 54.7058 30.6828 54.7229 30.4497 54.7165H22.2615C22.2615 56.3842 22.2615 58.0621 22.2615 59.7502H30.4497C34.1753 59.74 36.1712 57.7552 36.1712 54.0004Z" fill="#382778"/>
<path d="M21.5758 59.7502H22.2308C22.2308 58.0621 22.2308 56.3842 22.2308 54.7166H15.6086V59.7502H21.5758Z" fill="#382778"/>
<path d="M22.2206 36.802C22.2206 35.0934 22.2206 33.4155 22.2206 31.7683H21.1971C20.5747 32.3363 19.7625 32.6512 18.9197 32.6512C18.077 32.6512 17.2648 32.3363 16.6424 31.7683H15.6189C15.6189 33.4462 15.6189 35.1241 15.6189 36.802H22.2206Z" fill="#382778"/>
<path d="M18.7918 32.6482C19.228 32.6684 19.6638 32.6009 20.0734 32.4498C20.483 32.2986 20.8582 32.0669 21.1766 31.7683H16.6219C17.2099 32.3222 17.984 32.6361 18.7918 32.6482Z" fill="#382778"/>
<path d="M7.16469 97.0833C7.01154 97.0985 6.85725 97.0985 6.7041 97.0833C6.69453 96.9436 6.69453 96.8035 6.7041 96.6638C6.7041 92.7044 6.7041 88.6324 6.7041 84.5502C6.69668 84.4208 6.69668 84.291 6.7041 84.1615C6.85751 84.1528 7.01128 84.1528 7.16469 84.1615C9.73372 84.1615 12.2823 84.1615 14.8923 84.1615H15.619V79.0664H7.16469C3.69496 79.0664 1.6991 81.0512 1.66839 84.4786C1.66839 88.571 1.66839 92.6635 1.66839 96.674C1.61929 97.4059 1.72822 98.1398 1.98779 98.8258C2.24736 99.5119 2.6515 100.134 3.1728 100.65C3.69409 101.167 4.32036 101.565 5.00912 101.818C5.69788 102.071 6.43302 102.173 7.16469 102.117H15.619V97.0833C12.794 97.0833 9.97936 97.0935 7.16469 97.0833Z" fill="#382778"/>
<path d="M34.554 96.582C34.554 92.5714 34.554 88.5608 34.554 84.5503C34.554 81.082 32.5581 79.0869 29.1191 79.0767H22.2308V84.1001H29.0986C29.2279 84.0865 29.3583 84.0865 29.4876 84.1001C29.5018 84.243 29.5018 84.3869 29.4876 84.5298C29.4876 88.5267 29.4876 92.5271 29.4876 96.5308C29.5039 96.6941 29.5039 96.8586 29.4876 97.0219C29.3243 97.0388 29.1596 97.0388 28.9963 97.0219C26.7446 97.0219 24.4826 97.0219 22.2308 97.0219V102.056H29.0065C32.466 102.117 34.5438 100.04 34.554 96.582Z" fill="#382778"/>
<path d="M22.2206 102.127V97.0935H15.6086V102.137H22.2206V102.127Z" fill="#382778"/>
<path d="M18.1981 84.1001H22.2308V79.0664H15.6086V84.1001H18.1981Z" fill="#382778"/>
</svg>
