<svg width="154" height="137" viewBox="0 0 154 137" fill="none" xmlns="http://www.w3.org/2000/svg">
<path d="M145.163 88.1648C146.364 88.1648 147.462 88.1427 148.555 88.1648C151.215 88.2248 152.982 89.7778 153.023 92.0821C153.077 94.4463 151.275 96.1224 148.514 96.154C144.929 96.2013 141.344 96.154 137.764 96.154C126.028 96.154 114.294 96.154 102.562 96.154C101.845 96.1816 101.128 96.1457 100.418 96.0467C99.4744 95.9031 98.613 95.4282 97.9888 94.7072C97.3646 93.9862 97.0186 93.0666 97.0129 92.1136C97.0434 91.127 97.4323 90.1852 98.1071 89.4638C98.782 88.7425 99.6967 88.2908 100.681 88.1932C101.33 88.14 101.983 88.1263 102.634 88.1522H137.085V85.8858C137.085 60.7597 137.098 35.6337 137.126 10.5077C137.126 8.67375 136.699 8.07716 134.773 8.08032C98.9194 8.13714 63.0643 8.15082 27.2081 8.12136H24.8842V10.4383C24.8842 18.6452 24.8842 26.8522 24.8842 35.0592C24.917 35.8357 24.8317 36.6126 24.6313 37.3635C24.0495 39.1785 22.7343 40.1255 20.8056 40.075C18.8769 40.0245 17.6122 39.0207 17.1253 37.1741C16.9425 36.3454 16.8649 35.497 16.8945 34.6489C16.8798 26.6523 16.8798 18.6463 16.8945 10.6308V8.10557C15.6298 8.10557 14.4885 8.13714 13.3534 8.10557C10.6122 8.01719 8.97439 6.5273 8.9649 4.17884C8.93645 1.75778 10.6469 0.239485 13.4925 0.236328C43.6744 0.236328 73.8574 0.236328 104.041 0.236328C118.838 0.236328 133.636 0.236328 148.435 0.236328C150.475 0.236328 152.03 0.896044 152.767 2.85941C152.982 3.40799 153.067 3.99899 153.016 4.58596C152.964 5.17292 152.776 5.73984 152.467 6.24216C152.159 6.74447 151.738 7.16849 151.237 7.48087C150.737 7.79325 150.171 7.98548 149.583 8.04244C148.179 8.19396 146.738 8.07085 145.157 8.07085L145.163 88.1648Z" fill="#290267"/>
<path d="M56.0653 117.041C56.6755 116.343 57.1403 115.829 57.5861 115.295C73.4432 96.3981 89.3046 77.5042 105.17 58.6133C105.859 57.7958 106.729 56.9372 107.7 56.5837C109.432 55.9524 111.073 56.4322 112.17 58.0294C113.308 59.6929 113.144 61.3753 111.895 62.8936C108.914 66.511 105.888 70.0905 102.878 73.6827C87.944 91.4855 73.0238 109.3 58.1172 127.126C57.4438 127.931 57.2636 129.181 56.9727 130.254C56.8241 130.8 56.9727 131.422 56.9348 132.006C56.7956 134.392 55.2306 136.031 53.0553 136.091C50.7947 136.15 49.0589 134.512 48.945 132.038C48.8439 129.635 48.9103 127.227 48.9134 124.819C48.9134 114.014 41.8786 105.791 31.3468 104.326C19.9646 102.748 9.2463 111.744 8.89851 123.218C8.80682 126.144 8.89851 129.074 8.84476 132C8.79101 134.386 7.18801 136.027 4.99693 136.087C2.84695 136.147 1.03212 134.721 0.962558 132.429C0.791824 126.851 0.440871 121.245 2.17983 115.788C3.95038 110.204 7.43072 105.316 12.1307 101.811C16.8306 98.3063 22.5134 96.3618 28.3786 96.2513C34.2439 96.1408 39.996 97.8699 44.8251 101.195C49.6541 104.52 53.3167 109.274 55.297 114.787C55.5404 115.431 55.7523 116.106 56.0653 117.041Z" fill="#290267"/>
<path d="M8.43695 68.6385C8.42814 65.952 8.95253 63.2904 9.97985 60.8074C11.0072 58.3244 12.5171 56.0692 14.4223 54.1721C16.3276 52.275 18.5904 50.7735 21.0802 49.7544C23.57 48.7353 26.2373 48.2187 28.9282 48.2346C40.2061 48.263 49.3688 57.3128 49.432 68.4901C49.4358 71.21 48.9011 73.9038 47.8586 76.4166C46.8162 78.9295 45.2865 81.2119 43.3576 83.1327C41.4287 85.0534 39.1386 86.5746 36.6189 87.6088C34.0992 88.6431 31.3996 89.1699 28.6752 89.1591C17.5016 89.0833 8.42747 79.882 8.43695 68.6385ZM28.9535 81.1478C30.599 81.1537 32.2294 80.8336 33.7502 80.2061C35.271 79.5786 36.652 78.6561 37.8133 77.4921C38.9745 76.3281 39.8929 74.9456 40.5153 73.4248C41.1377 71.9039 41.4517 70.275 41.4391 68.6321C41.42 65.3133 40.0881 62.1364 37.7335 59.7934C35.379 57.4504 32.1925 56.1311 28.8681 56.1228C22.0134 56.1259 16.3065 61.8614 16.3318 68.7142C16.3401 70.3588 16.6734 71.9856 17.3127 73.5013C17.952 75.017 18.8847 76.3918 20.0572 77.5469C21.2298 78.702 22.6192 79.6147 24.1458 80.2326C25.6724 80.8505 27.3062 81.1615 28.9535 81.1478Z" fill="#290267"/>
<path d="M84.8687 48.1683C74.435 48.1683 64.0012 48.1841 53.5897 48.1683C50.1528 48.1683 48.104 45.5294 49.2739 42.7012C50.0074 40.9209 51.4713 40.2012 53.3146 40.176C55.6606 40.1475 58.0066 40.176 60.3526 40.176H114.896C115.417 40.176 115.939 40.176 116.458 40.176C119.208 40.2549 121.048 41.8994 121.004 44.2353C120.96 46.5711 119.129 48.1683 116.344 48.1715C105.853 48.1883 95.3614 48.1872 84.8687 48.1683Z" fill="#290267"/>
<path d="M93.0038 32.1711C85.1848 32.1711 77.3627 32.1963 69.5405 32.1711C65.9773 32.1711 63.9316 29.1313 65.4904 26.2936C66.4231 24.5922 68.0039 24.1598 69.7966 24.1598H89.5448C98.3977 24.1598 107.273 24.1598 116.138 24.1598C119.682 24.1598 121.731 26.5651 120.748 29.4438C120.131 31.2494 118.677 32.1648 116.271 32.1679C108.516 32.1827 100.761 32.1837 93.0038 32.1711Z" fill="#290267"/>
</svg>
