<svg width="192" height="141" viewBox="0 0 192 141" fill="none" xmlns="http://www.w3.org/2000/svg">
<path d="M147.044 128.067H121.208C119.564 134.146 115.944 138.333 109.865 140.142C108.662 140.525 107.411 140.738 106.149 140.778C99.3512 140.778 92.5538 140.889 85.7563 140.778C81.9323 140.678 78.2715 139.208 75.4408 136.635C72.61 134.062 70.7977 130.558 70.3339 126.761C69.8701 122.963 70.7858 119.126 72.9141 115.948C75.0425 112.769 78.2418 110.461 81.9293 109.443C83.5371 109.035 85.189 108.827 86.8478 108.822C92.5123 108.753 98.1631 108.822 103.828 108.822C113.043 108.822 118.279 112.607 121.208 121.519H147.044C146.94 119.526 146.94 117.529 147.044 115.536C147.073 114.99 147.21 114.454 147.447 113.961C147.685 113.468 148.017 113.027 148.426 112.662C153.344 109.899 158.332 107.136 164.314 107.647C165.958 107.799 167.575 108.145 169.288 108.421V80.0015H154.74C151.175 80.0015 150.263 79.0896 150.263 75.5251V67.5947C150.097 67.4427 150.001 67.277 149.904 67.277C143.12 67.277 136.323 67.277 129.525 67.277C128.875 67.3616 128.26 67.6192 127.743 68.023C119.592 73.4113 111.44 78.8271 103.344 84.2844C103.061 84.5136 102.827 84.7963 102.654 85.1164C102.481 85.4365 102.373 85.7876 102.336 86.1496C102.211 88.4016 102.336 90.6812 102.336 92.9471C102.314 95.4417 101.312 97.8279 99.5469 99.5907C97.7815 101.353 95.3939 102.352 92.8992 102.37C72.5805 102.37 52.2618 102.37 31.943 102.37C30.69 102.371 29.4489 102.126 28.2907 101.648C27.1325 101.17 26.0799 100.468 25.1932 99.5823C24.3066 98.6969 23.6031 97.6454 23.1232 96.4879C22.6432 95.3304 22.3962 94.0896 22.3962 92.8365C22.3962 88.6917 22.3962 84.5469 22.3962 80.4021C22.3079 80.2627 22.211 80.1289 22.1061 80.0015H3.74462C0.774178 80.0015 -0.524525 78.3159 0.193906 75.456C2.21104 67.3322 4.2466 59.2222 6.30057 51.1261C6.90848 48.7083 7.75125 48.0589 10.2105 48.0451C14.1481 48.0451 18.0718 48.0451 22.3271 48.0451C22.3271 47.2852 22.3271 46.5806 22.3271 45.8898C22.3271 38.291 22.3271 30.6922 22.3271 23.0934C22.3271 16.8486 26.3614 12.8558 32.5786 12.8558H73.7088C75.6706 5.94778 79.8983 1.66483 86.8616 0.283228C87.9102 0.0944555 88.9738 0.00196379 90.0393 0.00690842C96.2426 0.00690842 102.474 0.00690842 108.636 0.00690842C110.775 -0.0559885 112.906 0.311123 114.901 1.0865C116.896 1.86188 118.715 3.02976 120.251 4.52097C121.787 6.01218 123.008 7.79641 123.841 9.76797C124.675 11.7395 125.105 13.8583 125.105 15.9989C125.105 18.1395 124.675 20.2583 123.841 22.2299C123.008 24.2014 121.787 25.9856 120.251 27.4769C118.715 28.9681 116.896 30.136 114.901 30.9113C112.906 31.6867 110.775 32.0538 108.636 31.9909C102.778 31.9909 96.9058 31.7699 91.0478 31.9909C87.0929 32.2818 83.1648 31.1455 79.9759 28.7881C76.7871 26.4307 74.5489 23.0084 73.6673 19.1421H33.0345C29.7601 19.1421 28.7377 20.1644 28.7377 23.425V47.8793C29.3595 47.8793 29.9397 47.9898 30.5062 47.9898H47.0854C50.2907 47.9898 51.5756 49.6339 50.8295 52.7287C50.194 55.3538 49.5584 57.9788 48.8676 60.7834C55.6375 60.7834 62.1586 60.7834 68.6798 60.7834C69.389 60.683 70.0576 60.3917 70.614 59.9407C79.1523 54.2623 87.7182 48.6116 96.1736 42.8365C96.9892 42.1602 98.0154 41.7901 99.0749 41.7901C100.134 41.7901 101.161 42.1602 101.976 42.8365C110.441 48.5471 118.91 54.1886 127.384 59.7611C128.374 60.3878 129.515 60.7362 130.686 60.7696C137.124 60.8525 143.576 60.7696 150.249 60.7696C150.249 57.6748 150.249 54.7735 150.249 51.8583C150.249 48.9431 151.41 47.9622 154.132 47.9622C165.442 47.9622 176.767 47.9622 188.105 47.9622C188.605 47.8863 189.116 47.9282 189.597 48.0847C190.078 48.2412 190.516 48.5079 190.875 48.8635C191.235 49.2191 191.507 49.6538 191.669 50.133C191.83 50.6122 191.878 51.1226 191.808 51.6234C191.808 59.913 191.808 68.175 191.808 76.4093C191.865 76.8942 191.81 77.3856 191.648 77.8461C191.486 78.3067 191.221 78.7241 190.873 79.0666C190.525 79.4091 190.104 79.6677 189.641 79.8225C189.178 79.9773 188.686 80.0244 188.202 79.96C184.154 79.96 180.106 79.96 175.947 79.96V110.949C177.634 110.904 179.318 110.765 180.99 110.535C183.214 110.12 185.37 109.443 187.58 108.918C188.088 108.74 188.632 108.69 189.164 108.775C189.695 108.86 190.197 109.076 190.624 109.404C191.051 109.732 191.389 110.162 191.608 110.653C191.826 111.145 191.919 111.684 191.877 112.22C191.877 120.611 191.877 129.007 191.877 137.407C191.918 137.86 191.858 138.317 191.702 138.745C191.546 139.173 191.297 139.561 190.974 139.882C190.651 140.202 190.261 140.448 189.832 140.6C189.403 140.753 188.945 140.809 188.492 140.764C175.837 140.764 163.177 140.764 150.512 140.764C150.042 140.806 149.569 140.741 149.128 140.575C148.687 140.409 148.289 140.145 147.964 139.804C147.639 139.463 147.395 139.053 147.25 138.604C147.105 138.156 147.063 137.68 147.127 137.213C147.03 134.229 147.044 131.259 147.044 128.067ZM47.2373 67.277C46.6433 69.6809 46.0492 71.8639 45.538 74.0606C44.0458 80.5541 43.811 80.1396 37.8839 80.0844C34.8582 80.0844 31.8187 80.0844 28.7377 80.0844C28.7377 84.2292 28.7377 88.1253 28.7377 91.9799C28.7377 94.9918 29.8292 96.1247 32.8825 96.1247H91.7801C94.7643 96.1247 95.842 95.0195 95.9249 91.9799C96.0217 90.1852 96.0217 88.3865 95.9249 86.5917C95.8273 85.6782 95.3821 84.8372 94.6814 84.243C86.6405 78.7166 78.5444 73.4113 70.4482 68.0368C69.922 67.6479 69.3024 67.4049 68.6521 67.3322C61.5093 67.1941 54.4493 67.2079 47.2373 67.2079V67.277ZM121.844 64.2374C121.692 63.9611 121.664 63.8091 121.581 63.7401C114.397 58.9321 107.213 54.0689 99.973 49.3714C99.6373 49.2528 99.2794 49.211 98.9254 49.2493C98.5715 49.2876 98.2307 49.4048 97.9282 49.5925C95.013 51.43 92.1531 53.3919 89.2794 55.3123L76.3891 63.8368C76.5411 64.1131 76.5687 64.2651 76.6516 64.3342C83.8359 69.0869 91.0064 73.9777 98.2322 78.758C98.5369 78.8801 98.8651 78.9322 99.1927 78.9107C99.5202 78.8892 99.8388 78.7945 100.125 78.6337C102.501 77.1692 104.809 75.5804 107.13 74.033L121.844 64.2374ZM95.7591 134.395C98.8953 134.395 102.018 134.395 105.14 134.395C106.429 134.444 107.714 134.232 108.92 133.773C110.125 133.313 111.225 132.616 112.154 131.721C113.083 130.827 113.822 129.754 114.327 128.567C114.832 127.38 115.092 126.103 115.092 124.814C115.092 123.524 114.832 122.247 114.327 121.06C113.822 119.874 113.083 118.801 112.154 117.906C111.225 117.012 110.125 116.314 108.92 115.854C107.714 115.395 106.429 115.183 105.14 115.232C98.8769 115.232 92.6229 115.232 86.378 115.232C85.0892 115.183 83.8037 115.395 82.5985 115.854C81.3933 116.314 80.2933 117.012 79.3641 117.906C78.4349 118.801 77.6958 119.874 77.1909 121.06C76.6861 122.247 76.4258 123.524 76.4258 124.814C76.4258 126.103 76.6861 127.38 77.1909 128.567C77.6958 129.754 78.4349 130.827 79.3641 131.721C80.2933 132.616 81.3933 133.313 82.5985 133.773C83.8037 134.232 85.0892 134.444 86.378 134.395C89.5143 134.409 92.6367 134.395 95.7591 134.395ZM99.0059 25.6079C102.266 25.6079 105.527 25.6079 108.788 25.6079C111.331 25.6079 113.769 24.5977 115.568 22.7996C117.366 21.0014 118.376 18.5626 118.376 16.0196C118.376 13.4767 117.366 11.0378 115.568 9.23969C113.769 7.44154 111.331 6.43134 108.788 6.43134C102.405 6.43134 96.0216 6.36226 89.6386 6.43134C87.0993 6.43134 84.664 7.44008 82.8684 9.23564C81.0729 11.0312 80.0641 13.4665 80.0641 16.0058C80.0641 18.5451 81.0729 20.9804 82.8684 22.776C84.664 24.5716 87.0993 25.5803 89.6386 25.5803C92.761 25.6494 95.8834 25.6079 99.0059 25.6079ZM12.0342 54.4834L7.29532 73.5356H39.0721L43.8248 54.4834H12.0342ZM185.356 116.324C185.149 116.302 184.941 116.302 184.734 116.324C184.209 116.42 183.698 116.559 183.173 116.683C178.579 117.991 173.664 117.574 169.357 115.509C163.996 112.842 159.036 113.961 154.159 116.89C153.973 117.003 153.814 117.153 153.69 117.332C153.566 117.51 153.481 117.713 153.441 117.926C153.441 123.37 153.441 128.813 153.441 134.312H185.342L185.356 116.324ZM156.784 54.4972V73.4527H185.314V54.4972H156.784Z" fill="#382778"/>
</svg>
