<svg width="169" height="120" viewBox="0 0 169 120" fill="none" xmlns="http://www.w3.org/2000/svg">
<g clip-path="url(#clip0_278_1402)">
<path d="M91.6282 43.0169L90.4748 44.4466C85.1575 51.3643 76.7029 54.2006 69.0441 51.6411C65.7178 50.5896 62.8593 48.4176 60.9558 45.4952C59.0523 42.5728 58.2217 39.081 58.6056 35.6149C58.9505 32.1758 60.42 28.9462 62.7866 26.4262C65.1533 23.9063 68.285 22.2366 71.697 21.6756C79.6787 20.4189 85.7457 23.578 90.5324 29.7464C90.8093 30.1153 91.0746 30.4958 91.3629 30.8993C91.4206 30.9685 91.5475 31.0031 91.5129 30.98C93.4275 29.0776 95.1231 27.0484 97.1416 25.3651C100.13 22.8487 103.9 21.4487 107.808 21.4045C111.715 21.3603 115.516 22.6748 118.561 25.123C120.927 27.0849 122.657 29.7055 123.531 32.6519C124.404 35.5984 124.383 38.7379 123.468 41.672C122.553 44.606 120.787 47.2023 118.394 49.1312C116.001 51.0601 113.088 52.2346 110.025 52.5058C102.643 53.1399 97.0954 49.9116 92.724 44.3198L91.6282 43.0169ZM74.9727 27.0138C70.8204 27.083 67.5216 28.5703 65.653 32.2829C64.6926 33.9707 64.2534 35.9049 64.391 37.8418C64.5285 39.7787 65.2365 41.6315 66.4258 43.1668C68.9057 46.4873 72.4467 47.4212 76.426 46.7525C81.0397 45.9685 84.3847 43.1668 87.0145 39.4427C88.6062 37.1368 88.6062 37.1368 87.0952 34.8309C84.2001 30.369 80.44 27.3251 74.9727 27.0138ZM107.407 27.083C103.093 27.2444 99.4138 29.7348 96.8071 33.7932C94.431 37.5058 94.4195 36.7909 96.8763 40.4804C100.337 45.6572 106.254 47.9977 111.421 46.4527C113.705 45.8395 115.684 44.4108 116.985 42.437C118.286 40.4632 118.818 38.0811 118.48 35.7417C117.649 30.4958 113.543 27.0484 107.442 27.083H107.407Z" fill="#382778"/>
<path d="M106.761 41.4143V38.6011C106.761 38.4849 106.715 38.3735 106.633 38.2913C106.551 38.2091 106.439 38.163 106.323 38.163H103.474C103.358 38.163 103.246 38.1168 103.164 38.0347C103.082 37.9525 103.036 37.8411 103.036 37.7249V36.2721C103.034 36.2136 103.044 36.1554 103.066 36.1009C103.087 36.0464 103.119 35.9968 103.16 35.9549C103.201 35.9129 103.249 35.8796 103.303 35.8569C103.357 35.8342 103.415 35.8225 103.474 35.8225H106.323C106.439 35.8225 106.551 35.7763 106.633 35.6942C106.715 35.612 106.761 35.5006 106.761 35.3844V32.5481C106.76 32.4896 106.77 32.4314 106.791 32.3769C106.812 32.3224 106.844 32.2727 106.885 32.2308C106.926 32.1889 106.975 32.1556 107.029 32.1328C107.083 32.1101 107.141 32.0984 107.199 32.0984H108.653C108.712 32.0968 108.771 32.1074 108.827 32.1294C108.882 32.1515 108.932 32.1845 108.974 32.2266C109.016 32.2687 109.05 32.3189 109.072 32.3741C109.094 32.4294 109.104 32.4886 109.103 32.5481V35.3844C109.103 35.5006 109.149 35.612 109.231 35.6942C109.313 35.7763 109.425 35.8225 109.541 35.8225H112.355C112.414 35.8225 112.472 35.8342 112.526 35.8569C112.58 35.8796 112.628 35.9129 112.669 35.9549C112.71 35.9968 112.742 36.0464 112.764 36.1009C112.785 36.1554 112.795 36.2136 112.794 36.2721V37.7249C112.794 37.8411 112.747 37.9525 112.665 38.0347C112.583 38.1168 112.471 38.163 112.355 38.163H109.575C109.518 38.163 109.461 38.1743 109.408 38.1963C109.355 38.2184 109.306 38.2506 109.266 38.2913C109.225 38.332 109.193 38.3803 109.171 38.4334C109.149 38.4866 109.137 38.5436 109.137 38.6011V41.4143C109.139 41.4738 109.128 41.533 109.106 41.5883C109.084 41.6435 109.051 41.6937 109.009 41.7358C108.967 41.7779 108.917 41.811 108.861 41.833C108.806 41.855 108.747 41.8656 108.687 41.864H107.199C107.141 41.864 107.083 41.8523 107.029 41.8296C106.975 41.8068 106.926 41.7735 106.885 41.7316C106.844 41.6897 106.812 41.64 106.791 41.5855C106.77 41.531 106.76 41.4728 106.761 41.4143Z" fill="#382778"/>
<path d="M71.2703 37.8171V36.1453C71.2733 36.028 71.322 35.9166 71.406 35.8348C71.4901 35.7529 71.6028 35.7071 71.7201 35.7072H79.1251C79.2424 35.7071 79.3551 35.7529 79.4392 35.8348C79.5232 35.9166 79.5719 36.028 79.5749 36.1453V37.8171C79.5719 37.9343 79.5232 38.0457 79.4392 38.1276C79.3551 38.2094 79.2424 38.2552 79.1251 38.2552H71.7201C71.6028 38.2552 71.4901 38.2094 71.406 38.1276C71.322 38.0457 71.2733 37.9343 71.2703 37.8171Z" fill="#382778"/>
<path d="M164.502 29.1469C164.151 28.8135 163.877 28.4076 163.7 27.9575C163.523 27.5074 163.446 27.024 163.475 26.5412C163.475 19.1161 163.475 11.6795 163.475 4.25446C163.475 1.55654 162.045 0.126869 159.357 0.011573C159 0.011573 158.631 0.011573 158.273 0.011573H22.7801C22.2066 -0.00376706 21.6327 0.0154839 21.0615 0.069221C20.5909 0.0840995 20.1278 0.191753 19.6989 0.386C19.27 0.580248 18.8837 0.857265 18.5622 1.20115C18.2407 1.54503 17.9903 1.949 17.8254 2.38988C17.6605 2.83075 17.5843 3.29984 17.6013 3.77022C17.5551 8.65877 17.5551 13.5435 17.6013 18.4243C17.6013 18.4243 17.6013 18.505 17.6013 18.5512C17.7973 11.1607 19.2045 6.42203 21.2461 6.37591C23.2876 6.32979 24.7986 11.1837 25.0062 18.4474C25.1101 16.3836 25.0062 14.2967 25.0062 12.2214V7.52887H156.047C156.047 13.6972 156.047 19.6695 156.047 25.6303C156.047 32.0984 155.436 30.6226 160.153 35.3152C160.567 35.694 160.894 36.1583 161.112 36.6758C161.329 37.1934 161.431 37.752 161.41 38.3129C161.41 61.2798 161.41 84.2429 161.41 107.202C161.423 107.901 161.295 108.596 161.034 109.244C160.774 109.893 160.386 110.483 159.894 110.98C159.401 111.476 158.814 111.869 158.167 112.135C157.521 112.401 156.827 112.535 156.128 112.529H26.9901C26.3417 112.587 25.6893 112.587 25.0409 112.529C25.0409 114.27 25.0409 115.988 25.0409 117.636L17.9473 117.752C18.1555 118.326 18.5153 118.832 18.9885 119.218C19.4617 119.604 20.0306 119.854 20.6348 119.942C21.3588 120.017 22.0874 120.041 22.8147 120.012H158.146C158.609 120.081 159.079 120.081 159.542 120.012C160.578 119.782 161.564 119.364 162.448 118.778C164.075 117.417 165.436 115.746 167.062 114.339C167.737 113.738 168.265 112.989 168.605 112.152C168.945 111.314 169.088 110.41 169.023 109.508C169.023 86.3336 169.023 63.1707 169.023 39.9962C168.931 32.3521 169.853 34.5888 164.502 29.1469Z" fill="#382778"/>
<path d="M17.5898 116.449V114.293C17.4982 115.009 17.4982 115.733 17.5898 116.449Z" fill="#382778"/>
<path d="M25.0294 21.1569V20.1768C25.0294 19.5888 25.0294 19.0239 25.0294 18.4705C25.0094 19.4819 24.5956 20.4456 23.876 21.1569H25.0294Z" fill="#382778"/>
<path d="M21.9151 110.834C22.4358 110.862 22.9319 111.065 23.3222 111.41C23.5223 111.694 23.7777 111.934 24.073 112.116C24.3684 112.299 24.6976 112.419 25.0409 112.471V100.446H17.5897V114.281C17.5897 114.108 17.5897 113.947 17.6474 113.774C17.824 112.819 18.3726 111.973 19.1728 111.421C19.9729 110.87 20.9592 110.659 21.9151 110.834Z" fill="#382778"/>
<path d="M24.1181 74.4582H25.0524V52.6903H17.5897V74.4582H24.1181Z" fill="#382778"/>
<path d="M17.6244 18.5397C17.6244 19.1046 17.6244 19.6926 17.6244 20.2922V21.1569H18.7778C18.4194 20.8206 18.1326 20.4154 17.9344 19.9657C17.7362 19.516 17.6308 19.031 17.6244 18.5397Z" fill="#382778"/>
<path d="M17.6013 117.694H17.9357C17.7677 117.276 17.6515 116.838 17.5897 116.391L17.6013 117.694Z" fill="#382778"/>
<path d="M18.7317 21.1568H23.8644C24.5841 20.4456 24.9979 19.4818 25.0179 18.4704C24.7987 11.1837 23.2877 6.32973 21.2692 6.36432C19.2507 6.39891 17.8089 11.1491 17.6244 18.5396C17.6248 19.0276 17.723 19.5106 17.9132 19.9602C18.1033 20.4097 18.3816 20.8165 18.7317 21.1568Z" fill="#382778"/>
<path d="M25.0409 112.471C24.6976 112.42 24.3684 112.299 24.073 112.117C23.7777 111.934 23.5223 111.694 23.3222 111.411C22.9319 111.065 22.4358 110.862 21.9151 110.834C21.4409 110.748 20.9544 110.755 20.4833 110.857C20.0121 110.958 19.5656 111.152 19.1693 111.426C18.7729 111.7 18.4345 112.049 18.1734 112.454C17.9123 112.859 17.7335 113.312 17.6474 113.786C17.6474 113.959 17.6474 114.12 17.5897 114.293V116.449C17.6515 116.896 17.7677 117.333 17.9357 117.752L25.0293 117.637C25.0293 115.919 25.0293 114.212 25.0409 112.471Z" fill="#382778"/>
<path d="M16.2287 47.0177H6.38998C6.16733 47.0352 5.94364 47.0352 5.72099 47.0177C5.70461 46.7874 5.70461 46.5562 5.72099 46.3259C5.72099 40.1 5.72099 33.874 5.72099 27.648C5.70263 27.4062 5.70263 27.1634 5.72099 26.9216C5.93977 26.9034 6.15967 26.9034 6.37845 26.9216H17.5782C17.5782 25.0308 17.5782 23.1399 17.5782 21.2491H6.38998C2.21458 21.1684 0 23.3936 0 27.5903C0 33.7933 0 40.0231 0 46.2798C0 50.4535 2.20304 52.6672 6.35538 52.6903H17.5782V47.0177H16.2287Z" fill="#382778"/>
<path d="M40.762 46.2107C40.762 40.0616 40.762 33.8855 40.762 27.6826C40.762 23.4167 38.4552 21.1684 34.2798 21.1569H25.0524C25.0524 23.0131 25.0524 24.904 25.0524 26.8294H34.2798C34.5347 26.8268 34.7894 26.8461 35.041 26.8871C35.0875 27.1496 35.1068 27.4162 35.0987 27.6826C35.0987 33.8317 35.0987 40.0077 35.0987 46.2107C35.1173 46.4601 35.1173 46.7106 35.0987 46.9601C34.8399 47.0056 34.5771 47.0249 34.3144 47.0177H25.087C25.087 48.8971 25.087 50.7879 25.087 52.6903H34.3144C38.5129 52.6788 40.762 50.442 40.762 46.2107Z" fill="#382778"/>
<path d="M24.3142 52.6903H25.0524C25.0524 50.7879 25.0524 48.897 25.0524 47.0177H17.5897V52.6903H24.3142Z" fill="#382778"/>
<path d="M25.0409 26.8294C25.0409 24.904 25.0409 23.0131 25.0409 21.1569H23.8875C23.1862 21.7969 22.2708 22.1518 21.3211 22.1518C20.3715 22.1518 19.4561 21.7969 18.7547 21.1569H17.6013C17.6013 23.0477 17.6013 24.9386 17.6013 26.8294H25.0409Z" fill="#382778"/>
<path d="M21.177 22.1484C21.6685 22.1712 22.1596 22.0951 22.6212 21.9248C23.0828 21.7545 23.5056 21.4934 23.8644 21.1569H18.7317C19.3943 21.7811 20.2666 22.1348 21.177 22.1484Z" fill="#382778"/>
<path d="M8.07401 94.7617C7.90142 94.7789 7.72756 94.7789 7.55497 94.7617C7.54419 94.6044 7.54419 94.4464 7.55497 94.289C7.55497 89.8271 7.55497 85.2383 7.55497 80.638C7.5466 80.4921 7.5466 80.3458 7.55497 80.1999C7.72785 80.1901 7.90113 80.1901 8.07401 80.1999C10.9691 80.1999 13.8411 80.1999 16.7824 80.1999H17.6013V74.4581H8.07401C4.1639 74.4581 1.91472 76.6949 1.88011 80.5573C1.88011 85.1691 1.88011 89.781 1.88011 94.3006C1.82478 95.1253 1.94754 95.9523 2.24005 96.7255C2.53256 97.4986 2.988 98.1999 3.57546 98.7816C4.16292 99.3634 4.86868 99.8121 5.64485 100.097C6.42103 100.382 7.24948 100.497 8.07401 100.434H17.6013V94.7617C14.4179 94.7617 11.2459 94.7733 8.07401 94.7617Z" fill="#382778"/>
<path d="M38.9396 94.1969C38.9396 89.6773 38.9396 85.1577 38.9396 80.6381C38.9396 76.7295 36.6904 74.4813 32.8149 74.4697H25.0524V80.1308H32.7919C32.9376 80.1154 33.0845 80.1154 33.2302 80.1308C33.2462 80.2918 33.2462 80.454 33.2302 80.615C33.2302 85.1192 33.2302 89.6273 33.2302 94.1392C33.2485 94.3232 33.2485 94.5086 33.2302 94.6926C33.0461 94.7116 32.8606 94.7116 32.6765 94.6926C30.139 94.6926 27.5899 94.6926 25.0524 94.6926V100.365H32.688C36.5866 100.434 38.9281 98.0939 38.9396 94.1969Z" fill="#382778"/>
<path d="M25.0409 100.446V94.7733H17.5897V100.457H25.0409V100.446Z" fill="#382778"/>
<path d="M20.5079 80.1307H25.0524V74.4581H17.5897V80.1307H20.5079Z" fill="#382778"/>
</g>
<defs>
<clipPath id="clip0_278_1402">
<rect width="169" height="120" fill="white"/>
</clipPath>
</defs>
</svg>
