<svg xmlns="http://www.w3.org/2000/svg" viewBox="0 0 368 171.47"><defs><style>.cls-1{fill:#ef7d19;}.cls-2{fill:#fff;}</style></defs><g id="Layer_2" data-name="Layer 2"><g id="Layer_1-2" data-name="Layer 1"><path class="cls-1" d="M352.88,0H15.12A15.13,15.13,0,0,0,0,15.12V133.88A15.13,15.13,0,0,0,15.12,149H53.19l1.6,14.24a8.58,8.58,0,0,0,5.55,7.64,8.7,8.7,0,0,0,3.15.59,8.56,8.56,0,0,0,6.08-2.55L106.49,149H352.88A15.13,15.13,0,0,0,368,133.88V15.12A15.13,15.13,0,0,0,352.88,0Z"/><path class="cls-2" d="M351.94,3H16.06A13.05,13.05,0,0,0,3,16.05V126.19a13.06,13.06,0,0,0,13.05,13.05H56.83l1.94,20.82a4.64,4.64,0,0,0,7.91,3l40.86-23.86h244.4A13.06,13.06,0,0,0,365,126.19V16.05A13.05,13.05,0,0,0,351.94,3Z"/></g></g></svg>